A  warrior-assassin is forced to hide in a small town in the American Badlands after refusing a mission...
 
http://www.imdb.com/title/tt1032751/

Subtitles: Dutch, English.


De Aziatische Yang is een samoerai die al zijn hele leven traint om 's werelds beste zwaardvechter te worden. Wanneer hij de baby van de vijand moet doden, besluit hij zich van zijn clan af te zetten en met het kind naar het Wilde Westen te vluchten. Hier leert hij de messenwerpster Lynne kennen. Wanneer zij in de problemen komt, is Yang gedwongen zijn zwaard weer op te pakken...
 
http://www.moviemeter.nl/film/59857

Ondertitels: Engels, Nederlands.

General
Complete name                    : The Warriors Way-AC3-XviD-BRRip 2010.avi
Format                           : AVI
Format/Info                      : Audio Video Interleave
File size                        : 1.46 GiB
Duration                         : 1h 40mn
Overall bit rate                 : 2 086 Kbps
Writing application              : VirtualDubMod 1.5.4.1 (build 2178/release)
Writing library                  : VirtualDubMod build 2178/release
Source                           : The.Warriors.Way.2010.720p.BluRay.X264-AMIABLE

Video
ID                               : 0
Format                           : MPEG-4 Visual
Format profile                   : Simple@L3
Format settings, BVOP            : No
Format settings, QPel            : No
Format settings, GMC             : No warppoints
Format settings, Matrix          : Default (H.263)
Codec ID                         : XVID
Codec ID/Hint                    : XviD
Duration                         : 1h 40mn
Bit rate                         : 1 629 Kbps
Width                            : 720 pixels
Height                           : 304 pixels
Display aspect ratio             : 2.35:1
Frame rate                       : 23.976 fps
Resolution                       : 8 bits
Colorimetry                      : 4:2:0
Scan type                        : Progressive
Bits/(Pixel*Frame)               : 0.310
Stream size                      : 1.14 GiB (78%)
Writing library                  : XviD 1.1.2 (UTC 2006-11-01)

Audio
ID                               : 1
Format                           : AC-3
Format/Info                      : Audio Coding 3
Codec ID                         : 2000
Duration                         : 1h 40mn
Bit rate mode                    : Constant
Bit rate                         : 448 Kbps
Channel(s)                       : 6 channels
Channel positions                : Front: L C R, Surround: L R, LFE
Sampling rate                    : 48.0 KHz
Stream size                      : 321 MiB (21%)
Alignment                        : Split accross interleaves
Interleave, duration             : 42 ms (1.00 video frame)
Interleave, preload duration     : 500 ms

Thanks to  Simply Releases Toppers.

Enjoy...

TBS.